<?xml version="1.0" encoding="UTF-8"?><svg xmlns="http://www.w3.org/2000/svg" xmlns:xlink="http://www.w3.org/1999/xlink" version="1.1" id="Layer_1" x="0px" y="0px" viewBox="0 0 52 52" xml:space="preserve"><path d="M20.69 21.171c-3.265.87-6.805-1.466-9.684-2.726-2.552-1.116-4.975-2.303-7.156-4.066-1.24-1.002-3.02.756-1.768 1.768 3.034 2.452 6.478 3.955 10.044 5.473 3.026 1.288 5.892 2.852 9.228 1.962 1.553-.414.895-2.827-.664-2.41z"/><path d="M47.997 14.004c-5.427 3.314-10.883 6.438-17.245 7.478-1.584.259-.912 2.668.665 2.41 6.552-1.07 12.248-4.314 17.842-7.73 1.37-.837.116-3-1.262-2.158z"/><path d="M22.739 23.156c1.273-.666 2.547-1.204 4.014-.957.752.126 2.569.448 3.11.983l-.366-.884c.06 1.283-1.893 1.501-2.816 1.669-1.35.245-3.285.792-3.97-.804-.632-1.474-2.786-.202-2.158 1.262.962 2.244 3.418 2.508 5.56 2.176 2.315-.358 4.553-.678 5.637-3.047 1.072-2.343-1.448-2.96-3.186-3.465-2.605-.755-4.71-.335-7.087.909-1.426.746-.163 2.905 1.262 2.158z"/><path d="M50.452 15.46c3.719-5.992-9.818-4.464-11.906-4.454-5.5.026-10.94.74-16.408.065-4.801-.591-9.553-.536-14.382-.467-1.983.028-5.368-.775-6.629 1.146-.787 1.2-.145 3.766-.187 5.121-.07 2.294-1.033 4.508-1.05 6.73-.06 7.28.445 15.338 1.259 22.844.056.52.345 1.09.917 1.205 8.023 1.607 16.066 1.431 24.199 1.025 4.323-.216 8.648-.485 12.98-.448 2.583.022 6.751 1.28 9.084.224 4.438-2.011 2.515-7.815 2.525-11.432.009-3.665 1.401-7.212 1.25-10.897-.051-1.248-.202-2.15-.51-3.36-.78-3.052-.955-5.173-.41-8.464.262-1.574-2.147-2.25-2.41-.664-.4 2.413-1.157 4.46-.61 6.902.928 4.143 1.445 7.15.813 11.463-.408 2.792-.621 5.284-.414 8.11.345 4.7.092 6.077-4.702 5.775-7.104-.448-14.206.18-21.303.47-3.684.15-7.378.239-11.062.031-1.416-.08-6.074-.11-6.957-.783-1.56-1.188-1.254-2.631-1.406-4.505-.468-5.77-.47-11.24-.09-16.919.027-.405-.432-.6-.443-.968-.03-1.02.547-2.351.698-3.474.157-1.163-.118-2.579.141-3.716-.473-1.396-.005-2.354 1.404-2.874l1.942-.028c6.948-1.23 14.125 1.071 21.052.873 3.272-.093 6.51-.456 9.793-.481 1.058-.008 10.897.311 10.664.688-.851 1.37 1.31 2.627 2.158 1.261z"/><path d="M43.02 45.632c-.005-4.41-.016-8.82-.016-13.23-.001-4.237.78-8.464.548-12.68-.088-1.6-2.588-1.61-2.5 0 .232 4.216-.55 8.443-.548 12.68 0 4.41.01 8.82.016 13.23.002 1.608 2.502 1.611 2.5 0z"/><path d="M10.766 46.819c.955-8.719-.03-17.52 1.304-26.206.242-1.574-2.166-2.252-2.41-.664-1.37 8.916-.414 17.925-1.394 26.87-.175 1.597 2.326 1.584 2.5 0z"/><path d="M19.02 11.11c.252-1.025.4-3.713 1.099-4.465.947-1.02 4.224-.67 5.433-.73 1.398-.072 3.425-.55 4.765-.098 1.01.34.872.57 1.084 1.654.216 1.104.365 2.213.473 3.332.154 1.587 2.655 1.603 2.5 0-.19-1.969-.18-5.072-1.436-6.696-1.364-1.763-4.923-.818-6.81-.722-2.1.106-5.222-.351-7.1.771-1.916 1.144-1.938 4.336-2.42 6.29-.384 1.561 2.026 2.228 2.411.664z"/><metadata><rdf:RDF xmlns:rdf="http://www.w3.org/1999/02/22-rdf-syntax-ns#" xmlns:rdfs="http://www.w3.org/2000/01/rdf-schema#" xmlns:dc="http://purl.org/dc/elements/1.1/"><rdf:Description about="https://iconscout.com/legal#licenses" dc:title="bag,briefcase,portfolio,luggage" dc:description="bag,briefcase,portfolio,luggage" dc:publisher="Iconscout" dc:date="2017-11-11" dc:format="image/svg+xml" dc:language="en"><dc:creator><rdf:Bag><rdf:li>Dinosoft Labs</rdf:li></rdf:Bag></dc:creator></rdf:Description></rdf:RDF></metadata></svg>