<?xml version="1.0" encoding="UTF-8"?><svg xmlns="http://www.w3.org/2000/svg" xmlns:xlink="http://www.w3.org/1999/xlink" version="1.1" id="Layer_1" x="0px" y="0px" viewBox="0 0 52 52" xml:space="preserve"><path d="M21.849 9.408c-.42-.803.176-1.864.562-2.576.548-1.015 1.501-1.146 2.55-1.505 1.514-.518.864-2.934-.664-2.41-.905.31-1.962.525-2.773 1.057-.691.455-1.112 1.255-1.468 1.974-.756 1.531-1.2 3.127-.366 4.721.746 1.427 2.905.164 2.159-1.261z"/><path d="M24.784 5.25c1.609 0 1.611-2.5 0-2.5-1.608 0-1.611 2.5 0 2.5z"/><path d="M25.217 5.126c1.615-.462 3.08-.65 3.976 1.015.6 1.118 1.25 2.807.762 4.053-.524 1.336-2.431 1.92-3.75 2.165-1.822.339-2.403-.86-3.195-2.31-.77-1.413-2.93-.153-2.158 1.262 1.198 2.196 2.616 4.139 5.342 3.616 2.334-.448 5.312-1.423 6.145-3.903.762-2.27-.164-5.153-1.518-7.036-1.543-2.147-3.99-1.925-6.268-1.272-1.544.442-.888 2.855.664 2.41z"/><path d="M43.388 31.992c2.217-.922 4.332-.76 5.209 1.661.832 2.3.144 4.507-2.18 5.468-2.364.979-4.628.232-5.38-2.27-.849-2.821.63-3.429 2.72-4.836 1.327-.893.078-3.06-1.262-2.158-1.315.885-3.111 1.735-3.842 3.222-.85 1.73-.325 3.891.39 5.576 1.43 3.37 5.272 4.153 8.5 2.725 3.34-1.476 4.666-5.015 3.464-8.391-1.324-3.722-4.603-4.938-8.284-3.408-1.464.609-.822 3.029.665 2.41z"/><path d="M5 32.315c1.482-1.103 4.179-1.154 5.314.582 1.16 1.775 1.273 5.057-.79 6.142-1.228.645-3.582.744-4.871.169-2.378-1.06-1.905-4.996.38-5.918 1.473-.594.83-3.013-.664-2.41-3.416 1.378-4.86 5.51-2.984 8.821 1.584 2.798 6.55 2.851 9.12 1.659 3.541-1.643 3.605-5.992 2.215-9.143-1.452-3.294-6.18-4.145-8.983-2.061-1.276.95-.03 3.12 1.262 2.159z"/><path d="M6.441 30.508c.105-.977.81-1.782 1.037-2.737.211-.888.18-1.839.263-2.741.237-2.6.774-4.951 2.36-7.073.963-1.29-1.207-2.537-2.16-1.262-1.447 1.938-2.157 4.128-2.499 6.51-.182 1.27-.07 2.666-.375 3.902-.308 1.247-.987 2.1-1.126 3.401-.17 1.598 2.33 1.586 2.5 0z"/><path d="M10.14 17.845c1.584-1.42 3.133-2.894 4.759-4.266 1.828-1.543 3.737-2.027 6.044-2.41 1.583-.262.912-2.671-.665-2.41-2.19.363-4.3.82-6.104 2.185-2.045 1.547-3.894 3.422-5.801 5.133-1.2 1.077.572 2.84 1.767 1.768z"/><path d="M31.096 9.69c.95 1.067 1.861 1.502 3.161 2.066a17.11 17.11 0 0 1 5.841 4.15c3.41 3.687 4.844 9.285 4.508 14.168-.111 1.606 2.39 1.599 2.5 0 .33-4.812-.936-9.72-3.554-13.807-1.143-1.783-2.734-3.234-4.374-4.551-1.858-1.493-4.775-2.065-6.314-3.793-1.073-1.204-2.835.569-1.768 1.767z"/><path d="M40.588 40.646c-1.84 4.587-10.355 6.318-14.558 6.611-5.677.396-11.265-3.344-14.579-7.644-.968-1.256-3.141-.013-2.159 1.262 4.706 6.104 10.364 9.56 18.282 8.743 5.338-.55 13.233-2.846 15.424-8.307.6-1.493-1.818-2.142-2.41-.665z"/><metadata><rdf:RDF xmlns:rdf="http://www.w3.org/1999/02/22-rdf-syntax-ns#" xmlns:rdfs="http://www.w3.org/2000/01/rdf-schema#" xmlns:dc="http://purl.org/dc/elements/1.1/"><rdf:Description about="https://iconscout.com/legal#licenses" dc:title="connection,link,connect,network" dc:description="connection,link,connect,network" dc:publisher="Iconscout" dc:date="2017-11-11" dc:format="image/svg+xml" dc:language="en"><dc:creator><rdf:Bag><rdf:li>Dinosoft Labs</rdf:li></rdf:Bag></dc:creator></rdf:Description></rdf:RDF></metadata></svg>