<?xml version="1.0" encoding="UTF-8"?><svg xmlns="http://www.w3.org/2000/svg" xmlns:xlink="http://www.w3.org/1999/xlink" version="1.1" id="Layer_1" x="0px" y="0px" viewBox="0 0 52 52" xml:space="preserve"><path d="M1.844 2.92c1.369-.144 5.092-.941 6.299-.142 1.4.929 1.208 3.293 1.553 4.69 1.132 4.588 3.086 8.982 4.416 13.519.718 2.45 1.306 4.926 1.947 7.396.184.706.19 2.04.736 2.609 1.662 1.726 5.473.69 7.573.658a349.291 349.291 0 0 1 15.459.109c1.295.037 5.654-.238 6.613.426 1.463 3.982.393 5.776-3.21 5.384a30.01 30.01 0 0 1-3.464.077c-9.233-.17-18.303-.582-27.56-.295-1.605.05-1.612 2.55 0 2.5 5.973-.186 11.968-.512 17.944-.31 5.478.186 11.44 1.53 16.813-.107 7.27-2.215 4.667-9.006-1.719-9.95-6.105-.902-12.78-.417-18.943-.357-1.668.016-4.165.415-5.797.103l-1.611.353c-.203-.934-.419-1.866-.647-2.794a137.856 137.856 0 0 0-2.562-9.21c-.975-3.087-2.194-6.099-3.127-9.198-.584-1.94-.244-5.273-1.282-6.87C9.683-.94 4.215.17 1.845.42.26.588.243 3.09 1.844 2.92z"/><path d="M14.152 15.662c5.042-1.382 11.272-.281 16.564-.379l17.572-.322-1.206-1.582c-2.037 5.39-3.82 10.964-7.549 15.466-1.019 1.23.74 3.009 1.768 1.768 4.033-4.869 5.986-10.732 8.192-16.57.288-.763-.451-1.596-1.205-1.582l-19.524.358c-5.124.094-10.3-.931-15.277.432-1.55.425-.892 2.838.665 2.411z"/><path d="M40.235 42.914l-.05.402-.885.366c1.378-.101 3.04.607 3.798 1.767.995 1.524.799 3.402-1.09 3.865-1.934.475-3.349-.276-3.922-2.21-.245-.827-.41-1.53.297-2.093.405-.322 1.007-.477 1.447-.773 1.328-.894.078-3.06-1.261-2.159-1.138.766-2.643 1.087-3.109 2.553-.423 1.331.093 3.185.697 4.38 1.561 3.092 5.85 4.026 8.639 1.846 2.537-1.982 1.309-6.373-.826-8.112-1.1-.896-2.736-1.537-4.166-1.601-1.32-.06-2.524 1.094-1.98 2.434.598 1.471 3.017.828 2.41-.665z"/><path d="M19.88 43.697c1.348-.036 2.35.698 2.899 1.906.52 1.142.927 2.92-.58 3.266-1.063.245-2.209.164-2.943-.654-.472-.527-.824-1.138-.917-1.842-.055-.414-.238-1.96.513-1.954 1.61.015 1.61-2.485 0-2.5-2.846-.025-3.44 3.276-2.852 5.498.326 1.23 1.259 2.584 2.267 3.361 1.117.861 2.607.704 3.932.591 2.985-.253 3.883-2.299 3.381-5.098-.508-2.833-2.709-5.153-5.7-5.074-1.606.042-1.612 2.542 0 2.5z"/><metadata><rdf:RDF xmlns:rdf="http://www.w3.org/1999/02/22-rdf-syntax-ns#" xmlns:rdfs="http://www.w3.org/2000/01/rdf-schema#" xmlns:dc="http://purl.org/dc/elements/1.1/"><rdf:Description about="https://iconscout.com/legal#licenses" dc:title="shopping,trolley,basket,cart" dc:description="shopping,trolley,basket,cart" dc:publisher="Iconscout" dc:date="2017-11-11" dc:format="image/svg+xml" dc:language="en"><dc:creator><rdf:Bag><rdf:li>Dinosoft Labs</rdf:li></rdf:Bag></dc:creator></rdf:Description></rdf:RDF></metadata></svg>